<?xml version="1.0" standalone="no"?>
<!DOCTYPE svg PUBLIC "-//W3C//DTD SVG 20010904//EN"
 "http://www.w3.org/TR/2001/REC-SVG-20010904/DTD/svg10.dtd">
<svg version="1.0" xmlns="http://www.w3.org/2000/svg"
 viewBox="280 295 460 150"
 preserveAspectRatio="xMidYMid meet">

<g transform="translate(0.000000,1024.000000) scale(0.100000,-0.100000)"
fill="#000000" stroke="none">
<path d="M5970 7263 c1 -16 14 -43 30 -63 17 -19 30 -42 30 -52 0 -10 -26 -48
-59 -85 -761 -878 -941 -1089 -941 -1102 0 -5 24 -35 53 -68 28 -33 171 -197
317 -364 677 -778 738 -846 773 -862 30 -15 73 -17 295 -17 189 0 261 3 264
12 2 6 2 23 0 37 -3 22 -19 33 -100 71 -113 52 -164 98 -382 350 -131 149
-294 334 -602 680 -82 91 -148 168 -148 171 0 4 165 188 368 411 202 222 444
489 539 594 94 104 192 204 217 222 37 27 46 39 46 63 l0 29 -350 0 -350 0 0
-27z"/>
<path d="M3520 7251 c0 -25 10 -38 59 -75 37 -29 67 -62 80 -89 21 -43 21 -48
21 -1087 0 -1213 7 -1125 -95 -1226 -40 -39 -64 -72 -68 -92 l-6 -32 358 0
c301 0 360 2 371 15 20 25 7 44 -64 93 -54 36 -76 59 -95 97 l-26 49 -3 493
-3 493 174 0 c170 0 174 0 185 -22 8 -19 465 -731 719 -1123 l58 -90 258 -3
257 -2 0 30 c0 27 -9 36 -82 83 -46 29 -95 69 -110 89 -37 49 -577 891 -666
1039 l-22 37 48 30 c27 16 89 74 138 128 133 147 307 353 321 379 7 12 18 56
24 96 40 260 -93 535 -311 641 -159 76 -109 72 -852 76 l-668 3 0 -30z m1215
-322 c171 -31 267 -152 267 -334 0 -179 -105 -320 -264 -354 -29 -7 -181 -11
-368 -11 l-320 0 0 355 0 355 313 0 c183 0 338 -5 372 -11z"/>
<path d="M3220 6627 l-25 -13 -3 -650 -2 -651 21 -19 c17 -15 35 -19 95 -18
126 2 114 -68 114 685 l0 648 -22 15 c-28 20 -142 21 -178 3z"/>
<path d="M6791 6621 c-21 -21 -21 -24 -21 -655 0 -750 -13 -681 125 -681 74 0
89 3 101 19 21 29 21 1283 0 1312 -12 16 -29 20 -99 22 -76 4 -87 2 -106 -17z"/>
<path d="M2956 6488 c-14 -20 -16 -84 -16 -505 0 -337 3 -490 11 -507 16 -34
59 -50 121 -44 94 9 89 -23 86 543 -3 579 6 535 -114 535 -64 0 -75 -3 -88
-22z"/>
<path d="M7067 6492 c-15 -17 -17 -67 -17 -520 0 -442 2 -502 16 -516 11 -12
36 -16 90 -16 124 0 114 -46 114 535 0 581 10 535 -113 535 -59 0 -77 -4 -90
-18z"/>
<path d="M2799 6311 c-83 -12 -79 8 -79 -362 0 -327 0 -328 22 -343 14 -10 44
-16 79 -16 93 0 89 -16 89 367 0 252 -3 333 -12 341 -21 16 -50 20 -99 13z"/>
<path d="M7313 6309 c-10 -10 -13 -95 -13 -356 0 -341 0 -342 22 -354 29 -16
125 -5 149 17 18 16 19 36 19 339 0 301 -1 323 -19 339 -24 22 -141 33 -158
15z"/>
<path d="M2592 6078 c-16 -16 -17 -199 0 -216 14 -14 67 -16 86 -4 9 6 12 37
10 118 l-3 109 -40 3 c-23 2 -46 -3 -53 -10z"/>
<path d="M7533 6084 c-9 -4 -13 -36 -13 -110 0 -101 1 -105 24 -114 13 -5 37
-5 53 -1 l28 7 0 110 0 109 -40 2 c-22 1 -46 0 -52 -3z"/>
<path d="M3470 5976 c0 -118 5 -127 65 -117 l40 6 3 108 3 107 -56 0 -55 0 0
-104z"/>
<path d="M5696 6025 l-58 -54 47 -56 47 -55 495 0 494 0 -3 108 -3 107 -480 2
-480 2 -59 -54z"/>



</g>
</svg>
