<svg xmlns="http://www.w3.org/2000/svg" version="1.0" width="1024.000000pt" height="1024.000000pt" viewBox="0 0 1024.000000 1024.000000" preserveAspectRatio="xMidYMid meet">

<g transform="translate(0.000000,1024.000000) scale(0.100000,-0.100000)" fill="#ffffff" stroke="none">
<path d="M4980 8781 c-187 -111 -1319 -792 -1655 -996 -589 -356 -684 -416 -690 -436 -9 -28 -15 -606 -8 -760 l6 -126 76 19 c124 32 111 -12 111 387 l0 348 23 20 c22 20 55 41 582 360 383 233 451 273 1085 655 305 184 565 341 578 349 20 12 26 12 60 -7 198 -111 2238 -1347 2248 -1362 11 -16 14 -92 16 -369 l3 -348 50 -17 c28 -9 71 -19 98 -23 l47 -7 0 426 c0 348 -3 432 -14 454 -9 17 -58 53 -133 98 -65 39 -280 169 -478 289 -198 120 -414 250 -480 290 -66 40 -383 231 -705 425 -704 425 -660 400 -685 400 -11 0 -72 -31 -135 -69z" fill="#ffffff"/>
<path d="M5970 7263 c1 -16 14 -43 30 -63 17 -19 30 -42 30 -52 0 -10 -26 -48 -59 -85 -761 -878 -941 -1089 -941 -1102 0 -5 24 -35 53 -68 28 -33 171 -197 317 -364 677 -778 738 -846 773 -862 30 -15 73 -17 295 -17 189 0 261 3 264 12 2 6 2 23 0 37 -3 22 -19 33 -100 71 -113 52 -164 98 -382 350 -131 149 -294 334 -602 680 -82 91 -148 168 -148 171 0 4 165 188 368 411 202 222 444 489 539 594 94 104 192 204 217 222 37 27 46 39 46 63 l0 29 -350 0 -350 0 0 -27z" fill="#ffffff"/>
<path d="M3520 7251 c0 -25 10 -38 59 -75 37 -29 67 -62 80 -89 21 -43 21 -48 21 -1087 0 -1213 7 -1125 -95 -1226 -40 -39 -64 -72 -68 -92 l-6 -32 358 0 c301 0 360 2 371 15 20 25 7 44 -64 93 -54 36 -76 59 -95 97 l-26 49 -3 493 -3 493 174 0 c170 0 174 0 185 -22 8 -19 465 -731 719 -1123 l58 -90 258 -3 257 -2 0 30 c0 27 -9 36 -82 83 -46 29 -95 69 -110 89 -37 49 -577 891 -666 1039 l-22 37 48 30 c27 16 89 74 138 128 133 147 307 353 321 379 7 12 18 56 24 96 40 260 -93 535 -311 641 -159 76 -109 72 -852 76 l-668 3 0 -30z m1215 -322 c171 -31 267 -152 267 -334 0 -179 -105 -320 -264 -354 -29 -7 -181 -11 -368 -11 l-320 0 0 355 0 355 313 0 c183 0 338 -5 372 -11z" fill="#ffffff"/>
<path d="M3220 6627 l-25 -13 -3 -650 -2 -651 21 -19 c17 -15 35 -19 95 -18 126 2 114 -68 114 685 l0 648 -22 15 c-28 20 -142 21 -178 3z" fill="#ffffff"/>
<path d="M6791 6621 c-21 -21 -21 -24 -21 -655 0 -750 -13 -681 125 -681 74 0 89 3 101 19 21 29 21 1283 0 1312 -12 16 -29 20 -99 22 -76 4 -87 2 -106 -17z" fill="#ffffff"/>
<path d="M2956 6488 c-14 -20 -16 -84 -16 -505 0 -337 3 -490 11 -507 16 -34 59 -50 121 -44 94 9 89 -23 86 543 -3 579 6 535 -114 535 -64 0 -75 -3 -88 -22z" fill="#ffffff"/>
<path d="M7067 6492 c-15 -17 -17 -67 -17 -520 0 -442 2 -502 16 -516 11 -12 36 -16 90 -16 124 0 114 -46 114 535 0 581 10 535 -113 535 -59 0 -77 -4 -90 -18z" fill="#ffffff"/>
<path d="M2799 6311 c-83 -12 -79 8 -79 -362 0 -327 0 -328 22 -343 14 -10 44 -16 79 -16 93 0 89 -16 89 367 0 252 -3 333 -12 341 -21 16 -50 20 -99 13z" fill="#ffffff"/>
<path d="M7313 6309 c-10 -10 -13 -95 -13 -356 0 -341 0 -342 22 -354 29 -16 125 -5 149 17 18 16 19 36 19 339 0 301 -1 323 -19 339 -24 22 -141 33 -158 15z" fill="#ffffff"/>
<path d="M2592 6078 c-16 -16 -17 -199 0 -216 14 -14 67 -16 86 -4 9 6 12 37 10 118 l-3 109 -40 3 c-23 2 -46 -3 -53 -10z" fill="#ffffff"/>
<path d="M7533 6084 c-9 -4 -13 -36 -13 -110 0 -101 1 -105 24 -114 13 -5 37 -5 53 -1 l28 7 0 110 0 109 -40 2 c-22 1 -46 0 -52 -3z" fill="#ffffff"/>
<path d="M3470 5976 c0 -118 5 -127 65 -117 l40 6 3 108 3 107 -56 0 -55 0 0 -104z" fill="#ffffff"/>
<path d="M5696 6025 l-58 -54 47 -56 47 -55 495 0 494 0 -3 108 -3 107 -480 2 -480 2 -59 -54z" fill="#ffffff"/>
<path d="M2625 5438 c-3 -8 -5 -211 -3 -451 l3 -437 30 -29 c30 -29 2425 -1470 2457 -1479 10 -2 432 245 1070 629 579 348 1123 675 1208 726 85 51 167 105 183 119 l27 26 0 455 c0 360 -3 454 -12 450 -7 -2 -44 -15 -83 -27 -38 -13 -76 -28 -82 -33 -10 -7 -13 -91 -13 -358 l0 -349 -27 -29 c-16 -16 -86 -64 -158 -107 -477 -285 -1687 -1013 -1867 -1122 -119 -73 -226 -132 -238 -132 -18 0 -507 287 -1010 593 -171 104 -211 128 -745 447 -269 161 -501 303 -515 316 l-25 24 -3 352 c-2 220 -7 356 -13 364 -6 7 -41 22 -79 33 -38 12 -76 24 -85 27 -8 3 -17 0 -20 -8z" fill="#ffffff"/>
<path d="M2549 2687 c-152 -43 -245 -164 -257 -334 -7 -108 25 -201 92 -268 75 -75 131 -99 246 -103 79 -3 105 0 152 18 73 27 150 96 182 163 95 193 22 420 -160 504 -67 30 -185 40 -255 20z m153 -137 c49 -14 94 -52 121 -104 30 -58 30 -165 -1 -223 -98 -187 -371 -112 -372 103 0 104 53 190 136 219 48 17 68 18 116 5z" fill="#ffffff"/>
<path d="M5449 2687 c-103 -29 -181 -96 -228 -197 -22 -48 -26 -68 -26 -155 0 -87 3 -107 27 -156 33 -72 95 -134 167 -168 49 -23 68 -26 161 -26 92 0 112 3 160 26 153 73 230 245 186 419 -29 115 -123 220 -224 251 -58 17 -172 20 -223 6z m156 -138 c80 -22 145 -119 145 -215 0 -135 -110 -239 -231 -219 -119 20 -196 160 -159 294 14 54 72 117 125 136 49 17 69 18 120 4z" fill="#ffffff"/>
<path d="M6198 2687 c-59 -17 -108 -51 -139 -95 -20 -29 -24 -48 -24 -103 0 -112 35 -144 222 -200 127 -38 173 -66 173 -104 0 -8 -10 -26 -22 -40 -44 -50 -165 -46 -218 6 -16 17 -30 40 -30 51 0 18 -4 20 -47 14 -97 -13 -103 -16 -103 -42 0 -70 79 -154 169 -180 77 -23 231 -16 286 13 81 43 115 98 116 190 2 108 -57 162 -233 210 -67 18 -130 40 -140 50 -40 36 -7 102 55 105 84 4 120 -14 143 -68 15 -35 15 -35 62 -29 97 13 95 11 89 57 -8 58 -52 117 -111 146 -59 30 -177 39 -248 19z" fill="#ffffff"/>
<path d="M1608 2684 c-5 -4 -8 -162 -8 -351 l0 -343 80 0 80 0 0 120 0 120 54 0 53 0 73 -120 72 -120 89 0 c49 0 89 2 89 5 0 2 -36 61 -81 131 -44 69 -79 127 -77 128 96 55 132 111 132 206 0 99 -43 169 -129 206 -32 14 -78 19 -230 22 -104 2 -193 0 -197 -4z m351 -149 c66 -34 61 -129 -9 -166 -25 -14 -56 -19 -112 -19 l-78 0 0 100 0 100 85 0 c56 0 96 -5 114 -15z" fill="#ffffff"/>
<path d="M3150 2340 l0 -350 80 0 80 0 2 209 3 208 149 -208 148 -209 77 0 76 0 -1 347 -1 348 -76 3 -77 3 -2 -213 -3 -212 -150 211 -150 212 -77 0 -78 1 0 -350z" fill="#ffffff"/>
<path d="M3940 2340 l0 -350 80 0 80 0 -2 348 -3 347 -77 3 -78 3 0 -351z" fill="#ffffff"/>
<path d="M4590 2340 l0 -350 75 0 74 0 3 157 3 156 115 -156 115 -156 98 0 c53 -1 97 2 97 5 0 3 -62 87 -139 186 l-139 181 139 158 c77 86 139 160 139 163 0 3 -42 6 -94 6 l-93 0 -107 -129 c-58 -71 -113 -134 -121 -141 -13 -11 -15 5 -15 129 l0 141 -75 0 -75 0 0 -350z" fill="#ffffff"/>
<path d="M6720 2340 l0 -350 80 0 80 0 0 145 0 145 145 0 145 0 0 -145 0 -145 75 0 75 0 0 350 0 350 -75 0 -74 0 -3 -137 c-3 -160 14 -145 -165 -136 l-123 6 0 134 0 133 -80 0 -80 0 0 -350z" fill="#ffffff"/>
<path d="M7500 2340 l0 -350 245 0 245 0 0 70 0 70 -170 0 -170 0 0 75 0 75 145 0 145 0 0 65 0 65 -145 0 -145 0 0 70 0 70 165 0 165 0 0 70 0 70 -240 0 -240 0 0 -350z" fill="#ffffff"/>
<path d="M8130 2340 l0 -350 230 0 230 0 0 70 0 70 -150 0 -150 0 0 280 0 280 -80 0 -80 0 0 -350z" fill="#ffffff"/>
</g>
</svg>